<svg width="800" height="800" viewBox="0 0 24 24" xmlns="http://www.w3.org/2000/svg"><path fill-rule="evenodd" d="M13.895 9.494c-.37-.689-.732-1.262-1.108-1.73.128-.132.236-.241.301-.303C14.168 6.433 15.231 6 17 6c3.216 0 6 2.598 6 6s-2.784 6-6 6c-2.853 0-4.064-1.484-5.912-5.59C9.561 9.016 8.731 8 7 8c-2.25 0-4 1.868-4 4 0 2.141 1.735 4 4 4 1.043 0 2.29-.415 3.38-1.003.386.666.77 1.206 1.177 1.635C10.154 17.43 8.51 18 7 18c-3.402 0-6-2.784-6-6 0-3.208 2.614-6 6-6 2.853 0 4.064 1.484 5.912 5.59C14.439 14.984 15.269 16 17 16c2.141 0 4-1.735 4-4s-1.859-4-4-4c-1.251 0-1.822.233-2.533.91-.093.089-.327.33-.572.584"/></svg>